name Walk10.mot
datacolumns 19
datarows 17
range 1.54400000 1.56000000
endheader

                time	   L_ground_force_vx	   L_ground_force_vy	   L_ground_force_vz	   L_ground_force_px	   L_ground_force_py	   L_ground_force_pz	   R_ground_force_vx	   R_ground_force_vy	   R_ground_force_vz	   R_ground_force_px	   R_ground_force_py	   R_ground_force_pz	   L_ground_torque_x	   L_ground_torque_y	   L_ground_torque_z	   R_ground_torque_x	   R_ground_torque_y	   R_ground_torque_z	
          1.54400000	          0.00000000	          0.00000000	          0.00000000	          0.00000000	          0.00000000	          0.00000000	         35.01655694	        928.15481859	         86.09236526	         -0.20059632	          0.00000000	         -0.06981320	          0.00000000	          0.00000000	          0.00000000	          0.00000000	         -2.14928202	          0.00000000	
          1.54500000	          0.00000000	          0.00000000	          0.00000000	          0.00000000	          0.00000000	          0.00000000	         35.42665531	        929.87949063	         86.29511526	         -0.20025256	          0.00000000	         -0.06991563	          0.00000000	          0.00000000	          0.00000000	          0.00000000	         -2.12208915	          0.00000000	
          1.54600000	          0.00000000	          0.00000000	          0.00000000	          0.00000000	          0.00000000	          0.00000000	         35.83396048	        931.55468684	         86.52979649	         -0.19993829	          0.00000000	         -0.06999711	          0.00000000	          0.00000000	          0.00000000	          0.00000000	         -2.11013556	          0.00000000	
          1.54700000	          0.00000000	          0.00000000	          0.00000000	          0.00000000	          0.00000000	          0.00000000	         36.26431095	        933.19669737	         86.79332594	         -0.19963057	          0.00000000	         -0.07005173	          0.00000000	          0.00000000	          0.00000000	          0.00000000	         -2.12120797	          0.00000000	
          1.54800000	          0.00000000	          0.00000000	          0.00000000	          0.00000000	          0.00000000	          0.00000000	         36.75906960	        934.86331445	         87.05301666	         -0.19930730	          0.00000000	         -0.07010330	          0.00000000	          0.00000000	          0.00000000	          0.00000000	         -2.14923418	          0.00000000	
          1.54900000	          0.00000000	          0.00000000	          0.00000000	          0.00000000	          0.00000000	          0.00000000	         37.32096555	        936.62930026	         87.26129012	         -0.19895976	          0.00000000	         -0.07018361	          0.00000000	          0.00000000	          0.00000000	          0.00000000	         -2.17256090	          0.00000000	
          1.55000000	          0.00000000	          0.00000000	          0.00000000	          0.00000000	          0.00000000	          0.00000000	         37.89369185	        938.54207526	         87.40153268	         -0.19859744	          0.00000000	         -0.07029931	          0.00000000	          0.00000000	          0.00000000	          0.00000000	         -2.17568185	          0.00000000	
          1.55100000	          0.00000000	          0.00000000	          0.00000000	          0.00000000	          0.00000000	          0.00000000	         38.42236579	        940.57449194	         87.49947447	         -0.19823593	          0.00000000	         -0.07042584	          0.00000000	          0.00000000	          0.00000000	          0.00000000	         -2.16412968	          0.00000000	
          1.55200000	          0.00000000	          0.00000000	          0.00000000	          0.00000000	          0.00000000	          0.00000000	         38.90197983	        942.64544314	         87.58766511	         -0.19788961	          0.00000000	         -0.07053391	          0.00000000	          0.00000000	          0.00000000	          0.00000000	         -2.15390689	          0.00000000	
          1.55300000	          0.00000000	          0.00000000	          0.00000000	          0.00000000	          0.00000000	          0.00000000	         39.35804729	        944.70343503	         87.68084490	         -0.19757188	          0.00000000	         -0.07061116	          0.00000000	          0.00000000	          0.00000000	          0.00000000	         -2.15379786	          0.00000000	
          1.55400000	          0.00000000	          0.00000000	          0.00000000	          0.00000000	          0.00000000	          0.00000000	         39.80872800	        946.73887934	         87.78645086	         -0.19728477	          0.00000000	         -0.07065852	          0.00000000	          0.00000000	          0.00000000	          0.00000000	         -2.16114456	          0.00000000	
          1.55500000	          0.00000000	          0.00000000	          0.00000000	          0.00000000	          0.00000000	          0.00000000	         40.25623604	        948.72699995	         87.91443829	         -0.19700872	          0.00000000	         -0.07068402	          0.00000000	          0.00000000	          0.00000000	          0.00000000	         -2.16884060	          0.00000000	
          1.55600000	          0.00000000	          0.00000000	          0.00000000	          0.00000000	          0.00000000	          0.00000000	         40.70100464	        950.64054291	         88.06943918	         -0.19671717	          0.00000000	         -0.07069880	          0.00000000	          0.00000000	          0.00000000	          0.00000000	         -2.17153626	          0.00000000	
          1.55700000	          0.00000000	          0.00000000	          0.00000000	          0.00000000	          0.00000000	          0.00000000	         41.15430096	        952.50068027	         88.24751631	         -0.19640238	          0.00000000	         -0.07070435	          0.00000000	          0.00000000	          0.00000000	          0.00000000	         -2.17053931	          0.00000000	
          1.55800000	          0.00000000	          0.00000000	          0.00000000	          0.00000000	          0.00000000	          0.00000000	         41.63722149	        954.36882247	         88.43698220	         -0.19607602	          0.00000000	         -0.07069723	          0.00000000	          0.00000000	          0.00000000	          0.00000000	         -2.17402578	          0.00000000	
          1.55900000	          0.00000000	          0.00000000	          0.00000000	          0.00000000	          0.00000000	          0.00000000	         42.16190263	        956.30247144	         88.60910352	         -0.19574862	          0.00000000	         -0.07069396	          0.00000000	          0.00000000	          0.00000000	          0.00000000	         -2.18538242	          0.00000000	
          1.56000000	          0.00000000	          0.00000000	          0.00000000	          0.00000000	          0.00000000	          0.00000000	         42.71509706	        958.32046217	         88.73027742	         -0.19542076	          0.00000000	         -0.07072176	          0.00000000	          0.00000000	          0.00000000	          0.00000000	         -2.19600927	          0.00000000	
